<?xml version="1.0" encoding="UTF-8"?>
<!DOCTYPE svg PUBLIC "-//W3C//DTD SVG 1.1//EN" "http://www.w3.org/Graphics/SVG/1.1/DTD/svg11.dtd">
<!-- Creator: CorelDRAW 2020 (64-Bit) -->
<svg xmlns="http://www.w3.org/2000/svg" xml:space="preserve" width="210mm" height="210mm" version="1.1" style="shape-rendering:geometricPrecision; text-rendering:geometricPrecision; image-rendering:optimizeQuality; fill-rule:evenodd; clip-rule:evenodd"
viewBox="0 0 21000 21000"
 xmlns:xlink="http://www.w3.org/1999/xlink"
 xmlns:xodm="http://www.corel.com/coreldraw/odm/2003">
 <defs>
  <style type="text/css">
   <![CDATA[
    .fil0 {fill:white}
   ]]>
  </style>
    <clipPath id="id0">
     <path d="M319.93 -911.28l22735.54 0 0 23171.49 -22735.54 0 0 -23171.49z"/>
    </clipPath>
 </defs>
 <g id="Capa_x0020_1">
  <metadata id="CorelCorpID_0Corel-Layer"/>
  <g id="_1040569472">
   <g style="clip-path:url(#id0)">
    <image x="319.93" y="-911.28" width="22735.54" height="23171.49" xlink:href="isotipo_blanco_Images\isotipo_blanco_ImgID1.png"/>
   </g>
  </g>
  <g id="_1040569280">
   <path class="fil0" d="M11564.13 2437.59l2093.26 1057.9 67.61 10511.34c3.9,607.7 -1525.22,4284.91 -5306.6,4284.86 -3781.38,-0.06 -5182.23,-4239.82 -5182.23,-4239.82l0 -2667.26 -2363.45 -1063.51 -157.65 -2565.97 4828.03 2093.29 22.51 3466.25c0,0 213.94,2689.74 2903.55,2667.23 2689.62,-22.51 3049.87,-2149.54 3061.13,-2419.63 11.25,-270.09 33.84,-11124.68 33.84,-11124.68z"/>
   <polygon class="fil0" points="7039.98,366.86 10770.37,2155.4 10911.2,11103.27 8682.95,10133.52 8648.83,3632.03 7039.98,2797.74 "/>
   <polygon class="fil0" points="14366.29,3771.17 18203.95,5493.05 16054.41,10917.53 17675.02,11851.62 17675.02,14214.98 14366.29,12729.45 14366.29,10186.02 15649.26,6832.29 14366.29,6213.3 "/>
  </g>
 </g>
</svg>
