<?xml version="1.0" encoding="UTF-8"?>
<!DOCTYPE svg PUBLIC "-//W3C//DTD SVG 1.1//EN" "http://www.w3.org/Graphics/SVG/1.1/DTD/svg11.dtd">
<!-- Creator: CorelDRAW 2020 (64-Bit) -->
<svg xmlns="http://www.w3.org/2000/svg" xml:space="preserve" width="297mm" height="210mm" version="1.1" style="shape-rendering:geometricPrecision; text-rendering:geometricPrecision; image-rendering:optimizeQuality; fill-rule:evenodd; clip-rule:evenodd"
viewBox="0 0 29700 21000"
 xmlns:xlink="http://www.w3.org/1999/xlink"
 xmlns:xodm="http://www.corel.com/coreldraw/odm/2003">
 <defs>
  <style type="text/css">
   <![CDATA[
    .fil0 {fill:#050774}
   ]]>
  </style>
    <clipPath id="id0">
     <path d="M10378.62 5949.64l8908.52 0 0 9079.35 -8908.52 0 0 -9079.35z"/>
    </clipPath>
 </defs>
 <g id="Capa_x0020_1">
  <metadata id="CorelCorpID_0Corel-Layer"/>
  <g id="_907056384">
   <g style="clip-path:url(#id0)">
    <image x="10378.62" y="5949.64" width="8908.52" height="9079.35" xlink:href="isotipo_Images\isotipo_ImgID1.png"/>
   </g>
  </g>
  <g id="_907056912">
   <path class="fil0" d="M14784.46 7261.83l820.21 414.52 26.49 4118.69c1.53,238.12 -597.63,1678.97 -2079.3,1678.95 -1481.67,-0.02 -2030.57,-1661.3 -2030.57,-1661.3l0 -1045.12 -926.08 -416.72 -61.77 -1005.43 1891.78 820.22 8.82 1358.19c0,0 83.83,1053.93 1137.71,1045.11 1053.88,-8.82 1195.04,-842.26 1199.45,-948.09 4.41,-105.83 13.26,-4359.02 13.26,-4359.02z"/>
   <polygon class="fil0" points="13011.75,6450.45 14473.44,7151.26 14528.62,10657.33 13655.52,10277.35 13642.15,7729.85 13011.75,7402.95 "/>
   <polygon class="fil0" points="15882.44,7784.37 17386.16,8459.06 16543.9,10584.55 17178.91,10950.56 17178.91,11876.6 15882.44,11294.52 15882.44,10297.92 16385.15,8983.82 15882.44,8741.28 "/>
  </g>
 </g>
</svg>
