<?xml version="1.0" encoding="UTF-8"?>
<!DOCTYPE svg PUBLIC "-//W3C//DTD SVG 1.1//EN" "http://www.w3.org/Graphics/SVG/1.1/DTD/svg11.dtd">
<!-- Creator: CorelDRAW 2020 (64-Bit) -->
<svg xmlns="http://www.w3.org/2000/svg" xml:space="preserve" width="8.4666mm" height="8.4666mm" version="1.1" style="shape-rendering:geometricPrecision; text-rendering:geometricPrecision; image-rendering:optimizeQuality; fill-rule:evenodd; clip-rule:evenodd"
viewBox="0 0 846.66 846.66"
 xmlns:xlink="http://www.w3.org/1999/xlink"
 xmlns:xodm="http://www.corel.com/coreldraw/odm/2003">
 <defs>
  <style type="text/css">
   <![CDATA[
    .fil0 {fill:none}
    .fil1 {fill:#FCF9F9}
   ]]>
  </style>
    <clipPath id="id0">
     <path d="M146.37 17.81l630.78 0 0 872.3 -630.78 0 0 -872.3z"/>
    </clipPath>
 </defs>
 <g id="Capa_x0020_1">
  <metadata id="CorelCorpID_0Corel-Layer"/>
  <polygon class="fil0" points="0.59,1.09 849.3,-1.68 844.35,848.36 -0.72,846.71 "/>
  <g id="_1041101712">
   <g style="clip-path:url(#id0)">
    <image x="146.37" y="17.81" width="630.78" height="872.3" xlink:href="new_isotipo_Images\new_isotipo_ImgID1.png"/>
   </g>
  </g>
  <g id="_1041102336">
   <path class="fil1" d="M663.62 208.35l0 -55.29c0,0 -11.7,-89 -101.65,-92.94 -89.95,-3.95 -111.44,74.15 -111.44,74.15l0 414.08c0,0 -13.19,14.84 -27.59,14.84 -14.4,0 -24.12,-15.78 -24.12,-15.78l0 -41.52 -84.13 0 0 58.31c0,0 26.81,87.99 108.25,88.99 81.43,1.01 106.9,-92.94 106.9,-92.94l-1.42 -399.95c0,0 5.39,-18.21 22.98,-17.28 17.59,0.93 26.89,19.22 26.89,19.22l0 45.04 85.33 1.07z"/>
   <path class="fil1" d="M663.62 256.76l0 317.33c0,0 -33.27,209.62 -240.68,212.56 -207.42,2.94 -244.52,-210.62 -244.52,-210.62l0 -77.09 96.75 0 -1.91 59.3c0,0 13.9,130.52 147.76,135.47 133.86,4.95 155.35,-120.62 155.35,-120.62l0 -319.34 87.25 3.01z"/>
  </g>
 </g>
</svg>
