<?xml version="1.0" encoding="UTF-8"?>
<!DOCTYPE svg PUBLIC "-//W3C//DTD SVG 1.1//EN" "http://www.w3.org/Graphics/SVG/1.1/DTD/svg11.dtd">
<!-- Creator: CorelDRAW 2020 (64-Bit) -->
<svg xmlns="http://www.w3.org/2000/svg" xml:space="preserve" width="2.5398mm" height="2.5398mm" version="1.1" style="shape-rendering:geometricPrecision; text-rendering:geometricPrecision; image-rendering:optimizeQuality; fill-rule:evenodd; clip-rule:evenodd"
viewBox="0 0 253.98 253.98"
 xmlns:xlink="http://www.w3.org/1999/xlink"
 xmlns:xodm="http://www.corel.com/coreldraw/odm/2003">
 <defs>
  <style type="text/css">
   <![CDATA[
    .fil0 {fill:#050505}
    .fil1 {fill:#FCF9F9}
   ]]>
  </style>
 </defs>
 <g id="Capa_x0020_1">
  <metadata id="CorelCorpID_0Corel-Layer"/>
  <g id="_1047662544">
   <polygon class="fil0" points="-74.89,-77.02 328,-77.02 329.75,329.38 -76.65,329.38 "/>
   <g>
    <path class="fil1" d="M209.01 53.13l0 -18.79c0,0 -3.98,-30.24 -34.55,-31.58 -30.57,-1.34 -37.87,25.2 -37.87,25.2l0 140.72c0,0 -4.49,5.04 -9.38,5.04 -4.89,0 -8.2,-5.36 -8.2,-5.36l0 -14.11 -28.59 0 0 19.81c0,0 9.12,29.91 36.79,30.25 27.68,0.34 36.33,-31.59 36.33,-31.59l-0.48 -135.91c0,0 1.83,-6.19 7.81,-5.88 5.98,0.32 9.13,6.53 9.13,6.53l0 15.31 29.01 0.36z"/>
    <path class="fil1" d="M209.01 69.58l0 107.85c0,0 -11.31,71.23 -81.8,72.23 -70.49,1 -83.1,-71.58 -83.1,-71.58l0 -26.19 32.89 0 -0.65 20.15c0,0 4.72,44.36 50.21,46.04 45.49,1.68 52.79,-41 52.79,-41l0 -108.52 29.66 1.02z"/>
   </g>
  </g>
 </g>
</svg>
