<?xml version="1.0" encoding="UTF-8"?>
<!DOCTYPE svg PUBLIC "-//W3C//DTD SVG 1.1//EN" "http://www.w3.org/Graphics/SVG/1.1/DTD/svg11.dtd">
<!-- Creator: CorelDRAW 2020 (64-Bit) -->
<svg xmlns="http://www.w3.org/2000/svg" xml:space="preserve" width="2.5398mm" height="2.5398mm" version="1.1" style="shape-rendering:geometricPrecision; text-rendering:geometricPrecision; image-rendering:optimizeQuality; fill-rule:evenodd; clip-rule:evenodd"
viewBox="0 0 253.98 253.98"
 xmlns:xlink="http://www.w3.org/1999/xlink"
 xmlns:xodm="http://www.corel.com/coreldraw/odm/2003">
 <defs>
  <style type="text/css">
   <![CDATA[
    .fil0 {fill:#050505}
    .fil1 {fill:#FCF9F9}
   ]]>
  </style>
 </defs>
 <g id="Capa_x0020_1">
  <metadata id="CorelCorpID_0Corel-Layer"/>
  <polygon class="fil0" points="0.32,0.23 252.79,0.23 253.89,252.14 -0.78,252.14 "/>
  <g id="_905506528">
   <path class="fil1" d="M178.22 80.91l0 -11.65c0,0 -2.49,-18.75 -21.64,-19.58 -19.16,-0.83 -23.74,15.62 -23.74,15.62l0 87.23c0,0 -2.81,3.12 -5.87,3.12 -3.07,0 -5.14,-3.32 -5.14,-3.32l0 -8.75 -17.91 0 0 12.28c0,0 5.71,18.54 23.05,18.75 17.34,0.21 22.76,-19.58 22.76,-19.58l-0.3 -84.25c0,0 1.15,-3.83 4.9,-3.64 3.74,0.2 5.72,4.05 5.72,4.05l0 9.49 18.17 0.23z"/>
   <path class="fil1" d="M178.22 91.1l0 66.85c0,0 -7.08,44.16 -51.25,44.77 -44.17,0.62 -52.07,-44.36 -52.07,-44.36l0 -16.24 20.6 0 -0.41 12.49c0,0 2.96,27.49 31.47,28.54 28.51,1.04 33.08,-25.41 33.08,-25.41l0 -67.27 18.58 0.63z"/>
  </g>
 </g>
</svg>
