<?xml version="1.0" encoding="UTF-8"?>
<!DOCTYPE svg PUBLIC "-//W3C//DTD SVG 1.1//EN" "http://www.w3.org/Graphics/SVG/1.1/DTD/svg11.dtd">
<!-- Creator: CorelDRAW 2020 (64-Bit) -->
<svg xmlns="http://www.w3.org/2000/svg" xml:space="preserve" width="5.0798mm" height="5.0798mm" version="1.1" style="shape-rendering:geometricPrecision; text-rendering:geometricPrecision; image-rendering:optimizeQuality; fill-rule:evenodd; clip-rule:evenodd"
viewBox="0 0 507.98 507.98"
 xmlns:xlink="http://www.w3.org/1999/xlink"
 xmlns:xodm="http://www.corel.com/coreldraw/odm/2003">
 <defs>
  <style type="text/css">
   <![CDATA[
    .fil0 {fill:#002FFF;fill-rule:nonzero}
   ]]>
  </style>
 </defs>
 <g id="Capa_x0020_1">
  <metadata id="CorelCorpID_0Corel-Layer"/>
  <g id="ai.svg">
   <path class="fil0" d="M334.75 232.82l13.26 0c2.44,0 4.42,-1.89 4.42,-4.23l0 -12.7c0,-2.34 -1.98,-4.23 -4.42,-4.23 -2.44,0 -4.42,1.89 -4.42,4.23l0 8.47 -8.84 0c-2.44,0 -4.42,1.89 -4.42,4.23 0,2.34 1.98,4.23 4.42,4.23l0 0zm0 0z"/>
   <path class="fil0" d="M230.78 215.89c9.76,0 17.68,-7.58 17.68,-16.93 0,-9.36 -7.92,-16.94 -17.68,-16.94 -9.77,0 -17.68,7.58 -17.68,16.94 0,9.35 7.91,16.93 17.68,16.93zm0 -25.4c4.88,0 8.84,3.79 8.84,8.47 0,4.67 -3.96,8.46 -8.84,8.46 -4.89,0 -8.84,-3.79 -8.84,-8.46 0,-4.68 3.95,-8.47 8.84,-8.47zm0 0z"/>
   <path class="fil0" d="M134.24 214.48c1.87,0.93 3.95,1.41 6.05,1.41 5.63,0 10.63,-3.42 12.46,-8.52l34.76 -0.51 -6.06 4.8c-1.67,1.31 -2.11,3.59 -1.02,5.38l8.25 13.67 0.19 19.05 -22.06 0c-0.26,0.02 -0.52,0.07 -0.77,0.15 -2.08,-5.89 -8.31,-9.46 -14.71,-8.45 -6.4,1.01 -11.1,6.31 -11.1,12.53 0,6.22 4.7,11.52 11.1,12.53 6.4,1.01 12.63,-2.56 14.71,-8.45 0.25,0.08 0.51,0.13 0.77,0.15l26.52 0c1.17,0 2.3,-0.45 3.13,-1.25 0.83,-0.8 1.3,-1.89 1.29,-3.02l-0.21 -21.45 14.14 -5.08c0.96,0.59 1.94,1.14 2.93,1.63l2.98 17.16c0.35,2.04 2.2,3.54 4.36,3.54l2.31 0 0 21.17 -13.26 0c-2.44,0 -4.42,1.89 -4.42,4.23l0 61.76 -38.48 36.86c-1.26,1.21 -1.64,3.03 -0.95,4.61 0.68,1.58 2.29,2.61 4.08,2.61l141.42 0c1.79,0 3.4,-1.03 4.08,-2.61 0.69,-1.58 0.31,-3.4 -0.95,-4.61l-29.64 -28.4 0 -22.47 9.89 -15.79c16.69,9.65 26.79,14.61 29.88,14.61l26.52 0c2.44,0 4.42,-1.89 4.42,-4.23l0 -23.65 7.54 -7.22c0.82,-0.79 1.29,-1.87 1.3,-3l0 -12.7 6.45 0c3,0 5.79,-1.45 7.42,-3.85 1.63,-2.4 1.88,-5.43 0.66,-8.05l-13.74 -29.63c5.22,-5.95 8.07,-13.48 8.05,-21.24 0.1,-28.02 -16.45,-53.66 -42.65,-66.1l-12.82 -6.15c-1.94,-0.93 -4.31,-0.37 -5.57,1.33l-1.85 2.46 -29.92 0 0 -8.47c0,-2.34 -1.98,-4.23 -4.42,-4.23l-44.2 0c-2.44,0 -4.42,1.89 -4.42,4.23l0 16.94 -6.74 0c-2.16,-0.01 -4.01,1.49 -4.37,3.53l-2.98 17.16c-0.98,0.5 -1.96,1.04 -2.92,1.64l-17.02 -6.11c-2.02,-0.73 -4.3,0.05 -5.38,1.84l-4.45 7.4c-0.12,0 -0.21,-0.06 -0.32,-0.06l-26.53 0 0 -13.48c6.09,-2.06 9.74,-8.03 8.65,-14.12 -1.1,-6.1 -6.61,-10.56 -13.07,-10.56 -6.46,0 -11.98,4.46 -13.07,10.56 -1.09,6.09 2.56,12.06 8.65,14.12l0 17.71c0,2.34 1.98,4.23 4.42,4.23l26.45 0c-0.41,1.56 0.16,3.21 1.45,4.24l14.01 11.05c0,0.31 0,0.63 -0.02,0.94l-42.7 0.63c-2.01,-5.36 -7.51,-8.79 -13.44,-8.38 -5.94,0.41 -10.86,4.56 -12.04,10.15 -1.18,5.59 1.67,11.25 6.98,13.83l0 0zm19.31 43.74c-2.44,0 -4.42,-1.89 -4.42,-4.23 0,-2.34 1.98,-4.23 4.42,-4.23 2.44,0 4.42,1.89 4.42,4.23 0,2.34 -1.98,4.23 -4.42,4.23zm0 -114.3c2.44,0 4.42,1.9 4.42,4.24 0,2.33 -1.98,4.23 -4.42,4.23 -2.44,0 -4.42,-1.9 -4.42,-4.23 0,-2.34 1.98,-4.24 4.42,-4.24zm79.55 105.84l6.52 0c2.15,0 4,-1.5 4.35,-3.54l2.99 -17.16c0.98,-0.49 1.96,-1.04 2.92,-1.63l17.03 6.1c2.02,0.73 4.29,-0.05 5.37,-1.84l1.88 -3.1 20.81 0c0.33,-0.03 0.65,-0.09 0.96,-0.19l7.88 10.07 0 7.05 -17.67 0 0 8.47 10.19 0 -11.83 4.53c-1.68,0.65 -2.79,2.2 -2.78,3.94l0 8.46 -48.62 0 0 -21.16zm48.02 -68.87l-1.86 -3.1 11.3 0 0 16.93 -21.17 0 10.72 -8.46c1.66,-1.32 2.08,-3.58 1.01,-5.37zm9.44 22.3l0 16.93 -11.3 0 1.86 -3.1c1.07,-1.78 0.65,-4.05 -1.01,-5.36l-10.72 -8.47 21.17 0zm-29.65 104.59l16.39 15.7 0 2.48 -26.52 0 0 -46.57 8.84 0 0 25.4c0,1.12 0.46,2.2 1.29,2.99l0 0zm-28.01 56.28l0.2 0 0 -0.22 16.59 -18.16c0.7,-0.77 1.09,-1.76 1.09,-2.79l0 -8.47 8.84 0 0 38.11 -34.47 0 7.75 -8.47zm-51 8.47l32.23 -30.88c0.83,-0.79 1.29,-1.87 1.29,-2.99l0 -59.27 26.52 0 0 61.91 -8.84 9.68 0 -20.79 -8.84 0 0 30.48 -10.84 11.86 -31.52 0zm120.08 0l-33.52 0 0 -38.11 8.84 0 0 12.7c0,1.13 0.46,2.2 1.29,3l23.39 22.41zm-21.15 -57.63l-12.37 -11.85 0 -23.66 13.26 0 0 16.93c0,1.46 0.78,2.82 2.07,3.59 1.65,0.99 3.14,1.87 4.7,2.78l-7.66 12.21zm37.64 -169.81l9.45 4.53c23.21,11.02 37.85,33.72 37.77,58.53 0.02,6.54 -2.7,12.83 -7.55,17.45 -1.29,1.23 -1.65,3.11 -0.91,4.71l14.91 32.15 -10.87 0c-2.44,0 -4.42,1.89 -4.42,4.23l0 12.7 -0.76 0c-6.84,0.02 -13.4,-2.58 -18.21,-7.23 -1.74,-1.6 -4.5,-1.58 -6.2,0.06 -1.7,1.63 -1.73,4.27 -0.05,5.93 5.23,5.03 12.04,8.3 19.38,9.31l-1.71 1.64c-0.82,0.79 -1.29,1.87 -1.29,2.99l0 21.17 -21.68 0.02c-10.21,-4.52 -20.07,-9.74 -29.5,-15.62l-0.02 -0.02 -0.03 0c-2.08,-1.21 -4.17,-2.44 -6.22,-3.66l0 -28.66 19.31 -7.4c1.68,-0.64 2.78,-2.2 2.78,-3.93l0 -16.93c0,-0.92 -0.31,-1.81 -0.88,-2.54l-12.38 -15.81 0 -48.03 19.08 -25.59zm-80.95 -9.64l35.36 0 0 8.47c0,2.34 1.98,4.24 4.42,4.24l28.03 0 -13.95 18.7c-0.54,0.72 -0.83,1.58 -0.82,2.46l-16.41 0 -1.87 -3.1c-1.08,-1.79 -3.35,-2.57 -5.37,-1.84l-17.02 6.11c-0.95,-0.6 -1.93,-1.15 -2.91,-1.64l-3.01 -17.16c-0.35,-2.04 -2.2,-3.53 -4.35,-3.53l-2.1 0 0 -12.71zm-47.57 46.57l5.1 -8.46 15.69 5.63c1.41,0.5 2.99,0.29 4.2,-0.57 1.66,-1.2 3.47,-2.21 5.38,-3.01 1.38,-0.57 2.36,-1.77 2.61,-3.19l2.75 -15.8 10.19 0 2.75 15.8c0.25,1.42 1.23,2.63 2.62,3.2 1.91,0.79 3.71,1.8 5.38,3 1.2,0.86 2.78,1.08 4.19,0.57l15.69 -5.63 5.1 8.46 -12.93 10.19c-1.16,0.92 -1.76,2.34 -1.58,3.77 0.27,1.98 0.27,3.98 0,5.96 -0.18,1.43 0.42,2.85 1.58,3.77l12.93 10.18 -5.1 8.47 -15.69 -5.64c-1.41,-0.5 -2.99,-0.29 -4.19,0.57 -1.67,1.2 -3.47,2.21 -5.38,3.01 -1.39,0.57 -2.37,1.77 -2.62,3.19l-2.75 15.8 -10.19 0 -2.74 -15.8c-0.25,-1.42 -1.24,-2.63 -2.62,-3.19 -1.91,-0.8 -3.72,-1.81 -5.38,-3.01 -1.2,-0.86 -2.78,-1.08 -4.19,-0.57l-15.7 5.64 -5.1 -8.47 12.93 -10.19c0.08,-0.07 0.15,-0.15 0.23,-0.23 0.08,-0.08 0.16,-0.16 0.24,-0.25 0.33,-0.34 0.6,-0.74 0.79,-1.17l0.03 -0.04c0.19,-0.47 0.28,-0.97 0.28,-1.46 0.02,-0.06 0.03,-0.13 0.04,-0.19 0,-0.05 -0.03,-0.09 -0.03,-0.14 -0.01,-0.05 0,-0.19 0,-0.29 -0.27,-1.98 -0.27,-3.98 0,-5.95 0.18,-1.44 -0.42,-2.86 -1.58,-3.78l-12.93 -10.18zm-53.59 19.23c0.53,-1.01 1.46,-1.77 2.58,-2.11 2.26,-0.55 4.58,0.67 5.3,2.8 0.72,2.13 -0.42,4.42 -2.59,5.24 -2.33,0.72 -4.82,-0.51 -5.56,-2.73 -0.35,-1.06 -0.26,-2.21 0.27,-3.2zm0 0z"/>
   <path class="fil0" d="M224.26 296.32l8.84 0 0 8.47 -8.84 0 0 -8.47zm0 0z"/>
   <path class="fil0" d="M224.26 313.26l8.84 0 0 8.46 -8.84 0 0 -8.46zm0 0z"/>
   <path class="fil0" d="M250.78 245.52l8.84 0 0 8.47 -8.84 0 0 -8.47zm0 0z"/>
   <path class="fil0" d="M268.46 245.52l8.84 0 0 8.47 -8.84 0 0 -8.47zm0 0z"/>
   <path class="fil0" d="M308.23 169.32l8.84 0 0 16.94 -8.84 0 0 -16.94zm0 0z"/>
   <path class="fil0" d="M308.23 194.72l8.84 0 0 8.47 -8.84 0 0 -8.47zm0 0z"/>
   <path class="fil0" d="M308.23 211.66l8.84 0 0 8.46 -8.84 0 0 -8.46zm0 0z"/>
  </g>
 </g>
</svg>
