<?xml version="1.0" encoding="UTF-8"?>
<!DOCTYPE svg PUBLIC "-//W3C//DTD SVG 1.1//EN" "http://www.w3.org/Graphics/SVG/1.1/DTD/svg11.dtd">
<!-- Creator: CorelDRAW 2020 (64-Bit) -->
<svg xmlns="http://www.w3.org/2000/svg" xml:space="preserve" width="5.0798mm" height="5.0798mm" version="1.1" style="shape-rendering:geometricPrecision; text-rendering:geometricPrecision; image-rendering:optimizeQuality; fill-rule:evenodd; clip-rule:evenodd"
viewBox="0 0 507.98 507.98"
 xmlns:xlink="http://www.w3.org/1999/xlink"
 xmlns:xodm="http://www.corel.com/coreldraw/odm/2003">
 <defs>
  <style type="text/css">
   <![CDATA[
    .fil0 {fill:#002FFF;fill-rule:nonzero}
   ]]>
  </style>
 </defs>
 <g id="Capa_x0020_1">
  <metadata id="CorelCorpID_0Corel-Layer"/>
  <g id="astrology.svg">
   <path class="fil0" d="M146.39 173.74c5.06,1.12 9,5.16 10.05,10.27l3.2 15.72c0.41,2 2.15,3.43 4.17,3.43 2.02,0 3.75,-1.43 4.16,-3.43l3.21 -15.71c1.04,-5.12 4.99,-9.16 10.05,-10.28l16.06 -3.56c1.95,-0.43 3.34,-2.18 3.34,-4.19 0,-2.02 -1.39,-3.76 -3.34,-4.2l-16.06 -3.55c-0.01,0 -0.01,0 -0.01,0 -5.05,-1.12 -9,-5.16 -10.04,-10.28l-3.21 -15.72c-0.41,-1.99 -2.14,-3.43 -4.16,-3.43 -2.02,0 -3.76,1.44 -4.17,3.43l-3.2 15.72c-1.05,5.12 -4.99,9.16 -10.05,10.28l-16.06 3.55c-1.95,0.44 -3.34,2.18 -3.34,4.2 0,2.01 1.39,3.76 3.34,4.19l16.06 3.56zm17.42 -20.72c2.29,6.1 7.18,10.88 13.33,12.97 -6.15,2.08 -11.04,6.87 -13.33,12.96 -2.29,-6.09 -7.19,-10.88 -13.33,-12.96 6.14,-2.1 11.04,-6.87 13.33,-12.97zm0 0z"/>
   <path class="fil0" d="M177.84 350.68l-10.66 -2.36 0 0c-2.81,-0.62 -5,-2.86 -5.58,-5.71l-2.13 -10.43c-0.41,-2 -2.15,-3.43 -4.16,-3.43 -2.02,0 -3.76,1.43 -4.17,3.43l-2.13 10.44c-0.58,2.84 -2.77,5.08 -5.58,5.7l-10.65 2.36c-1.95,0.43 -3.34,2.18 -3.34,4.19 0,2.02 1.39,3.76 3.34,4.19l10.66 2.37c2.8,0.62 4.99,2.86 5.57,5.7l2.13 10.44c0.41,1.99 2.15,3.42 4.17,3.42 2.01,0 3.75,-1.43 4.16,-3.42l2.13 -10.44c0.58,-2.84 2.77,-5.08 5.58,-5.7l10.66 -2.37c1.94,-0.43 3.34,-2.17 3.34,-4.19 0,-2.01 -1.4,-3.76 -3.34,-4.19l0 0zm-22.54 9.55c-1.35,-2.2 -3.21,-4.04 -5.43,-5.36 2.22,-1.31 4.09,-3.16 5.43,-5.36 1.35,2.2 3.22,4.05 5.43,5.36 -2.21,1.32 -4.08,3.16 -5.43,5.36zm0 0z"/>
   <path class="fil0" d="M377.65 148.92l-10.66 -2.37 0 0c-2.8,-0.62 -5,-2.86 -5.58,-5.7l-2.12 -10.44c-0.41,-1.99 -2.15,-3.42 -4.17,-3.42 -2.02,0 -3.75,1.43 -4.16,3.42l-2.13 10.44c-0.58,2.84 -2.77,5.08 -5.58,5.7l-10.66 2.37c-1.95,0.43 -3.34,2.17 -3.34,4.19 0,2.01 1.39,3.76 3.34,4.19l10.66 2.36c2.81,0.63 5,2.86 5.58,5.71l2.13 10.44c0.41,1.99 2.14,3.42 4.16,3.42 2.02,0 3.76,-1.43 4.17,-3.42l2.12 -10.44c0.58,-2.85 2.78,-5.08 5.58,-5.71l10.66 -2.36c1.95,-0.43 3.34,-2.18 3.34,-4.19 0,-2.02 -1.39,-3.76 -3.34,-4.19l0 0zm-22.53 9.55c-1.35,-2.2 -3.21,-4.05 -5.43,-5.36 2.22,-1.32 4.08,-3.16 5.43,-5.36 1.35,2.2 3.21,4.04 5.43,5.36 -2.22,1.31 -4.08,3.16 -5.43,5.36zm0 0z"/>
   <path class="fil0" d="M265.65 228.6c7.73,-1.63 12.68,-9.28 11.06,-17.09 -1.62,-7.8 -9.2,-12.79 -16.93,-11.16 -7.72,1.64 -12.67,9.29 -11.05,17.09 1.62,7.8 9.2,12.8 16.92,11.16zm0 0z"/>
   <path class="fil0" d="M287.21 244.48c2.99,-0.63 4.9,-3.59 4.27,-6.6 -0.62,-3.02 -3.55,-4.95 -6.54,-4.31 -2.98,0.63 -4.9,3.59 -4.27,6.6 0.63,3.01 3.56,4.94 6.54,4.31zm0 0z"/>
   <path class="fil0" d="M224.17 222.24c-4.08,0.86 -6.69,4.9 -5.84,9.02 0.86,4.12 4.86,6.75 8.93,5.89 4.08,-0.87 6.69,-4.9 5.84,-9.02 -0.86,-4.12 -4.86,-6.76 -8.93,-5.89l0 0zm0 0z"/>
   <path class="fil0" d="M333.83 220.11c-2.35,0.02 -4.24,1.96 -4.21,4.33 0.02,2.37 2.02,4.47 4.29,4.25 28.14,-0.38 35.2,4.82 35.61,6.79 0.39,1.9 -3.91,9.19 -28.23,19.94 -3.71,1.65 -7.69,3.27 -11.86,4.87 0.07,-5.71 -0.46,-11.47 -1.65,-17.2 -4.25,-20.46 -16.14,-38.02 -33.48,-49.45 -17.32,-11.43 -38.03,-15.37 -58.29,-11.07 -20.27,4.29 -37.66,16.3 -48.98,33.8 -11.32,17.5 -15.21,38.41 -10.96,58.87 1.08,5.21 2.68,10.18 4.68,14.89 -1.16,0.02 -2.31,0.04 -3.44,0.04 -0.06,0 -0.13,0 -0.19,0 -26.39,0 -33.2,-4.9 -33.6,-6.8 -0.32,-1.58 2.92,-7.7 21.63,-16.87 2.12,-1.04 3,-3.6 1.97,-5.74 -1.02,-2.13 -3.56,-3.01 -5.68,-1.98 -19.37,9.49 -27.95,18.11 -26.23,26.35 1.9,9.17 15.61,13.63 41.9,13.63l0.21 0c2.48,-0.01 5.05,-0.06 7.68,-0.14 13.76,23.76 39.26,38.82 66.91,38.82 5.25,0 10.59,-0.55 15.93,-1.68 20.27,-4.29 37.66,-16.3 48.98,-33.8 6.4,-9.9 10.42,-20.88 11.94,-32.26 5.68,-2.09 11.03,-4.24 15.94,-6.41 24.21,-10.71 35.05,-20.38 33.14,-29.57 -1.96,-9.42 -16.51,-13.96 -44.01,-13.61l0 0zm-149.44 53.37c-3.78,-18.22 -0.32,-36.83 9.76,-52.42 10.08,-15.58 25.56,-26.26 43.6,-30.09 4.77,-1.01 9.56,-1.51 14.31,-1.51 13.26,0 26.24,3.88 37.6,11.37 15.43,10.17 26.01,25.81 29.8,44.02 1.3,6.27 1.7,12.51 1.33,18.61 -17.58,6.18 -38.19,11.87 -60,16.49 -25.58,5.42 -50.21,8.83 -70.86,9.87 -2.48,-5.13 -4.35,-10.61 -5.54,-16.34l0 0zm81.71 53.88c-18.05,3.82 -36.47,0.32 -51.91,-9.86 -7.83,-5.17 -14.41,-11.75 -19.49,-19.36 20.16,-1.3 43.6,-4.66 67.83,-9.79 20.52,-4.35 40,-9.63 57.02,-15.39 -5.32,26.43 -25.69,48.51 -53.45,54.4l0 0zm0 0z"/>
  </g>
 </g>
</svg>
