<?xml version="1.0" encoding="UTF-8"?>
<!DOCTYPE svg PUBLIC "-//W3C//DTD SVG 1.1//EN" "http://www.w3.org/Graphics/SVG/1.1/DTD/svg11.dtd">
<!-- Creator: CorelDRAW 2020 (64-Bit) -->
<svg xmlns="http://www.w3.org/2000/svg" xml:space="preserve" width="5.0798mm" height="5.0798mm" version="1.1" style="shape-rendering:geometricPrecision; text-rendering:geometricPrecision; image-rendering:optimizeQuality; fill-rule:evenodd; clip-rule:evenodd"
viewBox="0 0 507.98 507.98"
 xmlns:xlink="http://www.w3.org/1999/xlink"
 xmlns:xodm="http://www.corel.com/coreldraw/odm/2003">
 <defs>
  <style type="text/css">
   <![CDATA[
    .fil0 {fill:#002FFF;fill-rule:nonzero}
   ]]>
  </style>
 </defs>
 <g id="Capa_x0020_1">
  <metadata id="CorelCorpID_0Corel-Layer"/>
  <g id="atom_x0020__x0028_1_x0029_.svg">
   <g>
    <path class="fil0" d="M353.77 268.53c-4.17,-4.82 -8.87,-9.69 -14.03,-14.55 5.16,-4.85 9.85,-9.72 14.03,-14.54 8.71,-10.06 14.76,-19.5 17.98,-28.05 3.73,-9.89 3.61,-18.37 -0.33,-25.21 -3.95,-6.83 -11.23,-11.16 -21.66,-12.88 -9.02,-1.49 -20.22,-0.97 -33.28,1.54 -6.27,1.21 -12.84,2.84 -19.62,4.87 -1.48,-6.26 -3.16,-12.22 -5.02,-17.78 2.89,-2.77 4.71,-6.66 4.71,-10.98 0,-8.36 -6.81,-15.16 -15.17,-15.16 -0.55,0 -1.09,0.03 -1.62,0.08 -1.23,-1.86 -2.49,-3.6 -3.79,-5.17 -6.69,-8.17 -14.09,-12.31 -21.98,-12.31 -7.89,0 -15.29,4.14 -21.99,12.31 -5.8,7.07 -10.94,17.03 -15.31,29.6 -2.09,6.03 -3.95,12.53 -5.58,19.42 -6.78,-2.04 -13.35,-3.67 -19.61,-4.88 -13.07,-2.5 -24.26,-3.02 -33.29,-1.54 -10.42,1.72 -17.71,6.06 -21.65,12.89 -3.95,6.83 -4.06,15.31 -0.34,25.2 3.23,8.56 9.27,17.99 17.98,28.05 4.17,4.83 8.88,9.7 14.03,14.55 -3.09,2.91 -6.02,5.82 -8.77,8.73 -1.41,-0.43 -2.92,-0.67 -4.48,-0.67 -8.36,0 -15.16,6.8 -15.16,15.16 0,2.85 0.79,5.52 2.16,7.8 -2.43,4.01 -4.36,7.88 -5.76,11.57 -3.72,9.89 -3.61,18.37 0.34,25.21 3.94,6.83 11.23,11.16 21.65,12.88 3.35,0.55 7,0.83 10.93,0.83 6.66,0 14.14,-0.79 22.35,-2.37 6.27,-1.21 12.83,-2.84 19.61,-4.87 1.63,6.88 3.5,13.39 5.59,19.42 4.36,12.57 9.51,22.52 15.3,29.59 6.7,8.17 14.1,12.32 21.99,12.32 7.9,0 15.29,-4.15 21.99,-12.32 5.8,-7.07 10.95,-17.02 15.31,-29.59 2.09,-6.03 3.96,-12.54 5.58,-19.42 5.97,1.78 11.78,3.27 17.36,4.42 1.55,6.73 7.59,11.76 14.78,11.76 6.19,0 11.52,-3.73 13.87,-9.06 2.42,-0.13 4.72,-0.35 6.88,-0.71 10.43,-1.72 17.72,-6.05 21.66,-12.88 3.95,-6.84 4.06,-15.32 0.33,-25.21 -3.21,-8.55 -9.26,-17.99 -17.97,-28.05zm-35.11 -82.35c22.22,-4.27 38.21,-2.11 42.76,5.78 4.55,7.89 -1.57,22.81 -16.37,39.93 -4.12,4.75 -8.78,9.56 -13.91,14.36 -8.3,-7.14 -17.52,-14.18 -27.43,-20.97 -0.92,-11.97 -2.41,-23.48 -4.44,-34.23 6.72,-2.05 13.21,-3.69 19.39,-4.87zm-45.04 101.81c-6.54,3.77 -13.11,7.3 -19.63,10.56 -6.52,-3.25 -13.09,-6.78 -19.63,-10.56 -6.54,-3.78 -12.88,-7.7 -18.96,-11.72 -0.44,-7.28 -0.67,-14.73 -0.67,-22.29 0,-7.55 0.22,-15 0.67,-22.28 6.08,-4.02 12.42,-7.94 18.96,-11.72 6.54,-3.77 13.11,-7.3 19.63,-10.56 6.52,3.25 13.09,6.78 19.63,10.56 6.54,3.78 12.88,7.7 18.96,11.72 0.44,7.28 0.67,14.73 0.67,22.28 0,7.56 -0.22,15.01 -0.67,22.29 -6.08,4.02 -12.42,7.94 -18.96,11.72zm17.78 2.76c-0.81,7.8 -1.88,15.33 -3.19,22.52 -6.88,-2.46 -13.93,-5.31 -21.09,-8.5 4.09,-2.17 8.19,-4.43 12.27,-6.79 4.09,-2.35 8.09,-4.77 12.01,-7.23zm-50.55 14.02c-7.15,3.19 -14.21,6.04 -21.09,8.5 -1.31,-7.19 -2.37,-14.72 -3.18,-22.52 3.92,2.46 7.92,4.88 12,7.23 4.09,2.36 8.18,4.62 12.27,6.79zm-37.41 -36.77c-6.34,-4.6 -12.33,-9.29 -17.9,-14.02 5.57,-4.73 11.56,-9.41 17.9,-14.01 -0.17,4.63 -0.25,9.3 -0.25,14.01 0,4.72 0.08,9.4 0.25,14.02zm13.14 -50.78c0.81,-7.8 1.88,-15.33 3.19,-22.52 6.88,2.46 13.93,5.31 21.09,8.5 -4.09,2.17 -8.19,4.43 -12.27,6.79 -4.09,2.35 -8.09,4.77 -12.01,7.23zm50.55 -14.02c7.15,-3.19 14.21,-6.04 21.09,-8.5 1.31,7.19 2.37,14.72 3.18,22.52 -3.92,-2.46 -7.92,-4.88 -12,-7.23 -4.09,-2.36 -8.18,-4.62 -12.27,-6.79zm37.41 36.77c6.34,4.6 12.33,9.28 17.9,14.01 -5.57,4.73 -11.56,9.42 -17.9,14.02 0.17,-4.63 0.25,-9.3 0.25,-14.02 0,-4.71 -0.08,-9.38 -0.25,-14.01zm-76.94 -75.89c7.42,-21.38 17.28,-34.15 26.39,-34.15 5.15,0 10.54,4.09 15.6,11.51 -2.11,2.6 -3.37,5.91 -3.37,9.51 0,8.26 6.63,14.99 14.84,15.17 1.79,5.37 3.39,11.12 4.8,17.18 -10.33,3.63 -21.04,8.08 -31.88,13.27 -10.83,-5.19 -21.54,-9.64 -31.87,-13.27 1.6,-6.84 3.43,-13.28 5.49,-19.22zm-64.67 67.8c-14.81,-17.11 -20.92,-32.03 -16.37,-39.93 3.02,-5.22 11.04,-7.93 22.56,-7.93 5.89,0 12.69,0.71 20.21,2.15 6.18,1.19 12.67,2.82 19.39,4.87 -2.03,10.75 -3.53,22.26 -4.44,34.23 -9.92,6.79 -19.13,13.83 -27.43,20.97 -5.14,-4.79 -9.8,-9.6 -13.92,-14.36zm26.39 89.91c-22.22,4.27 -38.21,2.11 -42.76,-5.78 -3.07,-5.32 -1.28,-13.85 4.76,-24.08 1.18,0.29 2.4,0.45 3.67,0.45 8.37,0 15.17,-6.81 15.17,-15.17 0,-2.56 -0.65,-4.98 -1.78,-7.11 2.65,-2.78 5.48,-5.58 8.46,-8.37 8.3,7.13 17.52,14.18 27.43,20.96 0.92,11.98 2.41,23.48 4.44,34.24 -6.72,2.04 -13.21,3.68 -19.39,4.86zm91.06 22.1c-7.42,21.38 -17.28,34.15 -26.39,34.15 -9.11,0 -18.97,-12.77 -26.39,-34.15 -2.06,-5.94 -3.89,-12.38 -5.48,-19.22 10.33,-3.63 21.04,-8.08 31.87,-13.27 10.83,5.19 21.54,9.64 31.87,13.27 -1.59,6.84 -3.42,13.28 -5.48,19.22zm81.05 -27.88c-2.63,4.54 -9.06,7.18 -18.28,7.79 -2.2,-5.67 -7.71,-9.7 -14.15,-9.7 -5.43,0 -10.2,2.88 -12.88,7.18 -5.41,-1.13 -11.05,-2.59 -16.85,-4.35 2.03,-10.76 3.52,-22.26 4.44,-34.24 9.91,-6.78 19.13,-13.83 27.43,-20.96 5.13,4.8 9.79,9.6 13.91,14.36 14.81,17.11 20.93,32.03 16.38,39.92z"/>
    <path class="fil0" d="M253.99 230.03c-13.21,0 -23.95,10.75 -23.95,23.95 0,13.21 10.75,23.96 23.95,23.96 13.2,0 23.95,-10.75 23.95,-23.96 0,-13.2 -10.74,-23.95 -23.95,-23.95zm0 36.36c-6.84,0 -12.41,-5.57 -12.41,-12.41 0,-6.83 5.57,-12.4 12.41,-12.4 6.84,0 12.41,5.57 12.41,12.4 0,6.84 -5.57,12.41 -12.41,12.41z"/>
   </g>
   <g>
   </g>
   <g>
   </g>
   <g>
   </g>
   <g>
   </g>
   <g>
   </g>
   <g>
   </g>
   <g>
   </g>
   <g>
   </g>
   <g>
   </g>
   <g>
   </g>
   <g>
   </g>
   <g>
   </g>
   <g>
   </g>
   <g>
   </g>
   <g>
   </g>
  </g>
 </g>
</svg>
