<?xml version="1.0" encoding="UTF-8"?>
<!DOCTYPE svg PUBLIC "-//W3C//DTD SVG 1.1//EN" "http://www.w3.org/Graphics/SVG/1.1/DTD/svg11.dtd">
<!-- Creator: CorelDRAW 2020 (64-Bit) -->
<svg xmlns="http://www.w3.org/2000/svg" xml:space="preserve" width="1.6932mm" height="1.6932mm" version="1.1" style="shape-rendering:geometricPrecision; text-rendering:geometricPrecision; image-rendering:optimizeQuality; fill-rule:evenodd; clip-rule:evenodd"
viewBox="0 0 169.32 169.32"
 xmlns:xlink="http://www.w3.org/1999/xlink"
 xmlns:xodm="http://www.corel.com/coreldraw/odm/2003">
 <defs>
  <style type="text/css">
   <![CDATA[
    .fil0 {fill:#002FFF;fill-rule:nonzero}
   ]]>
  </style>
 </defs>
 <g id="Capa_x0020_1">
  <metadata id="CorelCorpID_0Corel-Layer"/>
  <g id="briefcase.svg">
   <g>
    <g>
     <g>
      <path class="fil0" d="M154.71 35.63l-35.02 0 0 -7.01c0,-7.73 -6.28,-14.01 -14.01,-14.01l-42.04 0c-7.73,0 -14.01,6.28 -14.01,14.01l0 7 -35.02 0c-7.73,0.01 -14.02,6.28 -14.02,14.01l0 21.02c0,7.72 6.29,14.01 14.02,14.01l56.04 0 0 -3.51c0,-1.93 1.57,-3.5 3.5,-3.5l21.02 0c1.93,0 3.5,1.57 3.5,3.5l0 3.51 56.04 0c7.73,0 14.02,-6.29 14.02,-14.01l0 -21.02c0,-7.73 -6.29,-14 -14.02,-14zm-49.03 0l-42.04 0 0 -7.01 42.04 0 0 7.01z"/>
      <path class="fil0" d="M166.78 88.44c-1.19,-0.59 -2.62,-0.45 -3.68,0.35 -2.49,1.89 -5.39,2.88 -8.39,2.88l-56.04 -0.01 0 10.51c0,1.93 -1.57,3.5 -3.5,3.5l-21.02 0.01c-1.93,0 -3.5,-1.57 -3.5,-3.5l0 -10.51 -56.04 -0.01c-3,0 -5.91,-0.99 -8.39,-2.88 -1.06,-0.8 -2.49,-0.94 -3.68,-0.35 -1.19,0.6 -1.95,1.82 -1.95,3.15l0 49.12c0,7.73 6.29,14.01 14.02,14.01l140.1 0c7.73,0 14.02,-6.28 14.02,-14.01l0 -49.12c0,-1.33 -0.76,-2.55 -1.95,-3.14z"/>
     </g>
    </g>
   </g>
   <g>
   </g>
   <g>
   </g>
   <g>
   </g>
   <g>
   </g>
   <g>
   </g>
   <g>
   </g>
   <g>
   </g>
   <g>
   </g>
   <g>
   </g>
   <g>
   </g>
   <g>
   </g>
   <g>
   </g>
   <g>
   </g>
   <g>
   </g>
   <g>
   </g>
  </g>
 </g>
</svg>
