<?xml version="1.0" encoding="UTF-8"?>
<!DOCTYPE svg PUBLIC "-//W3C//DTD SVG 1.1//EN" "http://www.w3.org/Graphics/SVG/1.1/DTD/svg11.dtd">
<!-- Creator: CorelDRAW 2020 (64-Bit) -->
<svg xmlns="http://www.w3.org/2000/svg" xml:space="preserve" width="5.0798mm" height="5.0798mm" version="1.1" style="shape-rendering:geometricPrecision; text-rendering:geometricPrecision; image-rendering:optimizeQuality; fill-rule:evenodd; clip-rule:evenodd"
viewBox="0 0 507.98 507.98"
 xmlns:xlink="http://www.w3.org/1999/xlink"
 xmlns:xodm="http://www.corel.com/coreldraw/odm/2003">
 <defs>
  <style type="text/css">
   <![CDATA[
    .fil0 {fill:#002FFF;fill-rule:nonzero}
   ]]>
  </style>
 </defs>
 <g id="Capa_x0020_1">
  <metadata id="CorelCorpID_0Corel-Layer"/>
  <g id="css-3.svg">
   <path class="fil0" d="M386.84 90.84l-265.71 0c-6.37,0 -11.14,5.38 -10.58,11.75l24.27 271.96c0.57,6.36 6.07,13.02 12.24,14.74l95.67 26.57c6.16,1.71 16.23,1.72 22.4,0.02l95.79 -26.53c6.17,-1.72 11.67,-8.32 12.23,-14.68l24.28 -272.08c0.56,-6.37 -4.19,-11.75 -10.59,-11.75zm-46.09 98.17c0,0.04 -0.03,0.08 -0.07,0.09 -0.04,0 -0.09,-0.02 -0.11,-0.06l-74.95 30.72c-1.06,0.43 -1.67,1.56 -1.45,2.7 0.23,1.13 1.22,1.95 2.37,1.95l58.3 0c3.11,0 6.06,1.31 8.14,3.62 2.07,2.31 3.07,5.38 2.74,8.47l-9.11 85.46c-0.45,4.19 -3.26,7.75 -7.24,9.15l-61.89 21.78c-2.33,0.82 -4.86,0.82 -7.2,0.01l-61.6 -21.33c-4,-1.39 -6.84,-4.96 -7.29,-9.18l-4.13 -38.7c-0.22,-2.03 0.44,-4.06 1.8,-5.58 1.37,-1.52 3.32,-2.39 5.36,-2.39l17.13 0c3.68,0 6.77,2.78 7.17,6.44l2.53 23.79 42.64 14.82 42.85 -14.96 5.24 -49.34 -121.14 0.01c-3.67,0 -6.75,-2.76 -7.15,-6.41l-2.31 -20.91c-0.35,-3.19 1.45,-6.22 4.41,-7.45l77.53 -31.97c0.88,-0.36 1.38,-1.29 1.2,-2.22 -0.19,-0.94 -1.01,-1.61 -1.96,-1.61l-81.63 0c-2.46,0 -4.51,-1.86 -4.77,-4.3l-2.36 -22.47c-0.15,-1.36 0.29,-2.71 1.2,-3.72 0.92,-1.01 2.21,-1.58 3.57,-1.58l170.8 0c1.37,0 2.68,0.58 3.59,1.6 0.91,1.02 1.34,2.39 1.19,3.74l-3.4 29.83z"/>
   <g>
   </g>
   <g>
   </g>
   <g>
   </g>
   <g>
   </g>
   <g>
   </g>
   <g>
   </g>
   <g>
   </g>
   <g>
   </g>
   <g>
   </g>
   <g>
   </g>
   <g>
   </g>
   <g>
   </g>
   <g>
   </g>
   <g>
   </g>
   <g>
   </g>
  </g>
 </g>
</svg>
