<?xml version="1.0" encoding="UTF-8"?>
<!DOCTYPE svg PUBLIC "-//W3C//DTD SVG 1.1//EN" "http://www.w3.org/Graphics/SVG/1.1/DTD/svg11.dtd">
<!-- Creator: CorelDRAW 2020 (64-Bit) -->
<svg xmlns="http://www.w3.org/2000/svg" xml:space="preserve" width="5.0798mm" height="5.0798mm" version="1.1" style="shape-rendering:geometricPrecision; text-rendering:geometricPrecision; image-rendering:optimizeQuality; fill-rule:evenodd; clip-rule:evenodd"
viewBox="0 0 507.98 507.98"
 xmlns:xlink="http://www.w3.org/1999/xlink"
 xmlns:xodm="http://www.corel.com/coreldraw/odm/2003">
 <defs>
  <style type="text/css">
   <![CDATA[
    .fil3 {fill:#002FFF;fill-rule:nonzero}
    .fil2 {fill:#57A4FF;fill-rule:nonzero}
    .fil1 {fill:#9BC9FF;fill-rule:nonzero}
    .fil0 {fill:#BDDBFF;fill-rule:nonzero}
   ]]>
  </style>
 </defs>
 <g id="Capa_x0020_1">
  <metadata id="CorelCorpID_0Corel-Layer"/>
  <path class="fil0" d="M380.98 158.74c0,-17.54 -56.85,-31.75 -126.99,-31.75 -70.14,0 -126.99,14.21 -126.99,31.75 0,17.53 56.85,31.75 126.99,31.75 70.14,0 126.99,-14.22 126.99,-31.75zm0 0z"/>
  <path class="fil1" d="M253.99 253.99c70.11,0 126.99,-14.2 126.99,-31.75l0 -63.5c0,17.55 -56.88,31.75 -126.99,31.75 -70.11,0 -126.99,-14.2 -126.99,-31.75l0 63.5c0,17.55 56.88,31.75 126.99,31.75zm0 0z"/>
  <path class="fil2" d="M253.99 317.49c70.11,0 126.99,-14.2 126.99,-31.75l0 -63.5c0,17.55 -56.88,31.75 -126.99,31.75 -70.11,0 -126.99,-14.2 -126.99,-31.75l0 63.5c0,17.55 56.88,31.75 126.99,31.75zm0 0z"/>
  <path class="fil3" d="M380.98 285.74c0,17.55 -56.88,31.75 -126.99,31.75 -70.11,0 -126.99,-14.2 -126.99,-31.75l0 63.5c0,17.56 56.88,31.75 126.99,31.75 70.11,0 126.99,-14.19 126.99,-31.75l0 -63.5zm0 0z"/>
 </g>
</svg>
