<?xml version="1.0" encoding="UTF-8"?>
<!DOCTYPE svg PUBLIC "-//W3C//DTD SVG 1.1//EN" "http://www.w3.org/Graphics/SVG/1.1/DTD/svg11.dtd">
<!-- Creator: CorelDRAW 2020 (64-Bit) -->
<svg xmlns="http://www.w3.org/2000/svg" xml:space="preserve" width="5.0798mm" height="5.0798mm" version="1.1" style="shape-rendering:geometricPrecision; text-rendering:geometricPrecision; image-rendering:optimizeQuality; fill-rule:evenodd; clip-rule:evenodd"
viewBox="0 0 507.98 507.98"
 xmlns:xlink="http://www.w3.org/1999/xlink"
 xmlns:xodm="http://www.corel.com/coreldraw/odm/2003">
 <defs>
  <style type="text/css">
   <![CDATA[
    .fil0 {fill:#002FFF;fill-rule:nonzero}
   ]]>
  </style>
 </defs>
 <g id="Capa_x0020_1">
  <metadata id="CorelCorpID_0Corel-Layer"/>
  <g id="data.svg">
   <g>
    <g>
     <path class="fil0" d="M320.63 125.01l-171.97 0c-11.87,0.01 -21.49,9.63 -21.51,21.49l0 137.58c0,9.81 6.64,18.37 16.13,20.82l2.15 -8.32c-5.7,-1.47 -9.68,-6.61 -9.67,-12.49l0 -137.59c0,-7.12 5.77,-12.9 12.9,-12.9l171.97 0c7.13,0 12.9,5.78 12.9,12.9l0 4.3 8.6 0 0 -4.3c-0.02,-11.86 -9.63,-21.48 -21.5,-21.49z"/>
    </g>
   </g>
   <g>
    <g>
     <rect class="fil0" x="144.36" y="142.2" width="8.6" height="8.6"/>
    </g>
   </g>
   <g>
    <g>
     <rect class="fil0" x="161.55" y="142.2" width="8.6" height="8.6"/>
    </g>
   </g>
   <g>
    <g>
     <rect class="fil0" x="178.75" y="142.2" width="8.6" height="8.6"/>
    </g>
   </g>
   <g>
    <g>
     <path class="fil0" d="M379.57 362.74l-40.78 -40.78c2.14,-3.83 3.85,-7.87 5.11,-12.07l6.83 -0.01 0 -8.6 -4.99 0c1.62,-10.4 0.37,-21.06 -3.61,-30.81l0 -42.28 -8.6 0 0 27.38c-2.55,-3.26 -5.43,-6.25 -8.6,-8.93l0 -35.64 -8.6 0 0 29.64c-2.75,-1.6 -5.63,-2.97 -8.6,-4.11l0 -42.73 -8.59 0 0 40.12c-2.84,-0.61 -5.71,-1.01 -8.6,-1.21l0 -30.32 -8.6 0 0 30.32c-2.89,0.2 -5.77,0.6 -8.6,1.21l0 -14.33 -8.6 0 0 16.94c-2.97,1.14 -5.84,2.51 -8.6,4.11l0 -25.35 -8.6 0 0 31.36c-3.16,2.67 -6.04,5.66 -8.6,8.92l0 -31.67 -8.59 0 0 46.57c-3.99,9.75 -5.24,20.41 -3.62,30.81l-56.58 0 0 8.6 58.43 0c9.43,31.81 42.85,49.95 74.66,40.52 6.27,-1.86 12.19,-4.73 17.54,-8.5l39.81 39.81c1.68,1.68 4.4,1.68 6.08,0l12.9 -12.9c1.67,-1.67 1.67,-4.39 0,-6.07zm-93.33 -18.46c-28.49,-0.03 -51.57,-23.11 -51.6,-51.6 0,-28.49 23.1,-51.59 51.6,-51.59 28.49,0 51.59,23.1 51.59,51.59 0,28.5 -23.1,51.6 -51.59,51.6zm77.38 28.31l-36.16 -36.16c2.34,-2.22 4.5,-4.62 6.47,-7.17l36.52 36.52 -6.83 6.81z"/>
    </g>
   </g>
   <g>
    <g>
     <path class="fil0" d="M286.24 249.69c-23.75,0 -43,19.25 -43,42.99 0,23.75 19.25,42.99 43,42.99 23.74,0 42.99,-19.24 42.99,-42.99 -0.03,-23.73 -19.26,-42.96 -42.99,-42.99zm0 77.39c-12.28,-0.01 -23.61,-6.57 -29.75,-17.2l59.49 0c-6.13,10.63 -17.47,17.19 -29.74,17.2zm-33.27 -25.8c-3.46,-13.09 1.16,-26.99 11.77,-35.4l0 26.81 8.6 0 0 -31.86c2.76,-1.12 5.65,-1.87 8.6,-2.24l0 34.1 8.6 0 0 -34.1c2.95,0.37 5.84,1.12 8.6,2.23l0 31.87 8.59 0 0 -26.81c10.61,8.41 15.23,22.31 11.77,35.4l-66.53 0z"/>
    </g>
   </g>
   <g>
    <g>
     <path class="fil0" d="M346.43 159.4l-171.98 0c-11.87,0.02 -21.48,9.63 -21.5,21.5l0 137.58c0.02,11.87 9.63,21.48 21.5,21.5l55.9 0 0 -8.6 -55.9 0c-7.13,0 -12.9,-5.77 -12.9,-12.9l0 -137.58c0,-7.13 5.77,-12.9 12.9,-12.9l171.98 0c7.12,0 12.9,5.77 12.9,12.9l0 137.58c0,3.14 -1.15,6.17 -3.23,8.53l6.45 5.69c3.47,-3.93 5.38,-8.99 5.38,-14.22l0 -137.58c-0.02,-11.86 -9.63,-21.48 -21.5,-21.5z"/>
    </g>
   </g>
   <g>
    <g>
     <rect class="fil0" x="170.15" y="176.6" width="8.6" height="8.6"/>
    </g>
   </g>
   <g>
    <g>
     <rect class="fil0" x="187.35" y="176.6" width="8.6" height="8.6"/>
    </g>
   </g>
   <g>
    <g>
     <rect class="fil0" x="204.55" y="176.6" width="8.6" height="8.6"/>
    </g>
   </g>
   <g>
    <g>
     <rect class="fil0" x="178.75" y="266.89" width="8.6" height="25.8"/>
    </g>
   </g>
   <g>
    <g>
     <rect class="fil0" x="195.95" y="241.09" width="8.6" height="51.6"/>
    </g>
   </g>
   <g>
    <g>
     <rect class="fil0" x="213.15" y="253.99" width="8.6" height="38.7"/>
    </g>
   </g>
   <g>
   </g>
   <g>
   </g>
   <g>
   </g>
   <g>
   </g>
   <g>
   </g>
   <g>
   </g>
   <g>
   </g>
   <g>
   </g>
   <g>
   </g>
   <g>
   </g>
   <g>
   </g>
   <g>
   </g>
   <g>
   </g>
   <g>
   </g>
   <g>
   </g>
  </g>
 </g>
</svg>
