<?xml version="1.0" encoding="UTF-8"?>
<!DOCTYPE svg PUBLIC "-//W3C//DTD SVG 1.1//EN" "http://www.w3.org/Graphics/SVG/1.1/DTD/svg11.dtd">
<!-- Creator: CorelDRAW 2020 (64-Bit) -->
<svg xmlns="http://www.w3.org/2000/svg" xml:space="preserve" width="2.7092mm" height="2.7092mm" version="1.1" style="shape-rendering:geometricPrecision; text-rendering:geometricPrecision; image-rendering:optimizeQuality; fill-rule:evenodd; clip-rule:evenodd"
viewBox="0 0 270.92 270.92"
 xmlns:xlink="http://www.w3.org/1999/xlink"
 xmlns:xodm="http://www.corel.com/coreldraw/odm/2003">
 <defs>
  <style type="text/css">
   <![CDATA[
    .fil0 {fill:white}
    .fil1 {fill:black;fill-rule:nonzero}
   ]]>
  </style>
 </defs>
 <g id="Capa_x0020_1">
  <metadata id="CorelCorpID_0Corel-Layer"/>
  <rect class="fil0" x="66.01" y="42.3" width="138.91" height="186.32"/>
  <g id="i.svg">
   <path class="fil1" d="M135.46 0.96c-74.28,0 -134.5,60.22 -134.5,134.5 0,74.29 60.22,134.5 134.5,134.5 74.28,0 134.5,-60.21 134.5,-134.5 0,-74.28 -60.22,-134.5 -134.5,-134.5zm0 67.25c9.28,0 16.81,7.53 16.81,16.81 0,9.29 -7.53,16.81 -16.81,16.81 -9.28,0 -16.81,-7.53 -16.81,-16.81 0,-9.28 7.53,-16.81 16.81,-16.81zm25.22 134.5l-50.44 0c-4.65,0 -8.41,-3.76 -8.41,-8.41 0,-4.65 3.76,-8.41 8.41,-8.41l8.41 0.01 0 -50.44 -8.41 0c-4.65,0 -8.41,-3.76 -8.41,-8.41 0,-4.65 3.76,-8.41 8.41,-8.41l33.63 0.01c4.65,0 8.41,3.76 8.41,8.41l0 58.84 8.4 0c4.65,0 8.41,3.76 8.41,8.41 -0.01,4.64 -3.77,8.4 -8.41,8.4z"/>
   <g>
   </g>
   <g>
   </g>
   <g>
   </g>
   <g>
   </g>
   <g>
   </g>
   <g>
   </g>
   <g>
   </g>
   <g>
   </g>
   <g>
   </g>
   <g>
   </g>
   <g>
   </g>
   <g>
   </g>
   <g>
   </g>
   <g>
   </g>
   <g>
   </g>
  </g>
 </g>
</svg>
