<?xml version="1.0" encoding="UTF-8"?>
<!DOCTYPE svg PUBLIC "-//W3C//DTD SVG 1.1//EN" "http://www.w3.org/Graphics/SVG/1.1/DTD/svg11.dtd">
<!-- Creator: CorelDRAW 2020 (64-Bit) -->
<svg xmlns="http://www.w3.org/2000/svg" xml:space="preserve" width="5.0798mm" height="5.0798mm" version="1.1" style="shape-rendering:geometricPrecision; text-rendering:geometricPrecision; image-rendering:optimizeQuality; fill-rule:evenodd; clip-rule:evenodd"
viewBox="0 0 507.98 507.98"
 xmlns:xlink="http://www.w3.org/1999/xlink"
 xmlns:xodm="http://www.corel.com/coreldraw/odm/2003">
 <defs>
  <style type="text/css">
   <![CDATA[
    .fil0 {fill:#002FFF;fill-rule:nonzero}
   ]]>
  </style>
 </defs>
 <g id="Capa_x0020_1">
  <metadata id="CorelCorpID_0Corel-Layer"/>
  <g id="js.svg">
   <g>
    <g>
     <path class="fil0" d="M392.53 110.67l-277.08 0c-2.64,0 -4.78,2.14 -4.78,4.78l0 277.08c0,2.64 2.14,4.78 4.78,4.78l277.08 0c2.64,0 4.78,-2.14 4.78,-4.78l0 -277.08c0,-2.64 -2.14,-4.78 -4.78,-4.78zm-119.43 219.75c0,23.71 -19.28,43 -42.99,43 -23.71,0 -43,-19.29 -43,-43 0,-2.63 2.13,-4.78 4.78,-4.78 2.64,0 4.78,2.14 4.78,4.78 0,18.44 15,33.44 33.44,33.44 18.43,0 33.43,-15 33.43,-33.44l0 -114.65c0,-2.63 2.14,-4.78 4.78,-4.78 2.64,0 4.78,2.14 4.78,4.78l0 114.65 0 0zm57.32 -42.99c23.71,0 43,19.29 43,42.99 0,23.71 -19.29,43 -43,43 -23.71,0 -42.99,-19.29 -42.99,-43 0,-2.63 2.13,-4.78 4.78,-4.78 2.64,0 4.78,2.14 4.78,4.78 0,18.44 15,33.44 33.43,33.44 18.44,0 33.44,-15 33.44,-33.44 0,-18.44 -15,-33.43 -33.44,-33.43 -23.71,0 -42.99,-19.3 -42.99,-43 0,-23.7 19.28,-43 42.99,-43 23.71,0 43,19.3 43,43 0,2.64 -2.13,4.78 -4.78,4.78 -2.64,0 -4.78,-2.14 -4.78,-4.78 0,-18.44 -15,-33.44 -33.44,-33.44 -18.43,0 -33.43,15 -33.43,33.44 0,18.44 15,33.44 33.43,33.44z"/>
    </g>
   </g>
   <g>
   </g>
   <g>
   </g>
   <g>
   </g>
   <g>
   </g>
   <g>
   </g>
   <g>
   </g>
   <g>
   </g>
   <g>
   </g>
   <g>
   </g>
   <g>
   </g>
   <g>
   </g>
   <g>
   </g>
   <g>
   </g>
   <g>
   </g>
   <g>
   </g>
  </g>
 </g>
</svg>
