<?xml version="1.0" encoding="UTF-8"?>
<!DOCTYPE svg PUBLIC "-//W3C//DTD SVG 1.1//EN" "http://www.w3.org/Graphics/SVG/1.1/DTD/svg11.dtd">
<!-- Creator: CorelDRAW 2020 (64-Bit) -->
<svg xmlns="http://www.w3.org/2000/svg" xml:space="preserve" width="2.5398mm" height="2.5398mm" version="1.1" style="shape-rendering:geometricPrecision; text-rendering:geometricPrecision; image-rendering:optimizeQuality; fill-rule:evenodd; clip-rule:evenodd"
viewBox="0 0 253.98 253.98"
 xmlns:xlink="http://www.w3.org/1999/xlink"
 xmlns:xodm="http://www.corel.com/coreldraw/odm/2003">
 <defs>
  <style type="text/css">
   <![CDATA[
    .fil0 {fill:#002FFF;fill-rule:nonzero}
   ]]>
  </style>
 </defs>
 <g id="Capa_x0020_1">
  <metadata id="CorelCorpID_0Corel-Layer"/>
  <g id="linkedin.svg">
   <path class="fil0" d="M179.36 63.06l-104.74 0c-6.38,0 -11.56,5.18 -11.56,11.56l0 104.73c0,6.39 5.18,11.57 11.56,11.57l104.73 0c6.39,0 11.57,-5.18 11.57,-11.57l0 -104.73c0,-6.38 -5.18,-11.56 -11.56,-11.56zm-76.74 110.4c0,1.86 -1.5,3.37 -3.37,3.37l-14.32 0c-1.86,0 -3.37,-1.5 -3.37,-3.37l0 -60.06c0,-1.86 1.51,-3.37 3.37,-3.37l14.33 0c1.86,0 3.37,1.51 3.37,3.37l-0.01 60.06zm-10.52 -69.09c-7.52,0 -13.62,-6.09 -13.62,-13.61 0,-7.52 6.09,-13.61 13.62,-13.61 7.52,0 13.61,6.09 13.61,13.61 0,7.52 -6.1,13.61 -13.61,13.61zm85.41 69.37c0,1.7 -1.39,3.09 -3.1,3.09l-15.37 0c-1.71,0 -3.1,-1.38 -3.1,-3.09l0 -28.18c0,-4.2 1.23,-18.41 -10.99,-18.41 -9.47,0 -11.39,9.73 -11.78,14.09l0 32.5c0,1.7 -1.39,3.09 -3.1,3.09l-14.87 0c-1.7,0 -3.09,-1.38 -3.09,-3.09l0 -60.61c0,-1.71 1.39,-3.1 3.1,-3.1l14.87 0c1.7,0 3.09,1.39 3.09,3.1l0 5.24c3.52,-5.27 8.74,-9.34 19.85,-9.34 24.62,0 24.48,23 24.48,35.64l0.01 29.07 0 0z"/>
   <g>
   </g>
   <g>
   </g>
   <g>
   </g>
   <g>
   </g>
   <g>
   </g>
   <g>
   </g>
   <g>
   </g>
   <g>
   </g>
   <g>
   </g>
   <g>
   </g>
   <g>
   </g>
   <g>
   </g>
   <g>
   </g>
   <g>
   </g>
   <g>
   </g>
  </g>
 </g>
</svg>
