<?xml version="1.0" encoding="UTF-8"?>
<!DOCTYPE svg PUBLIC "-//W3C//DTD SVG 1.1//EN" "http://www.w3.org/Graphics/SVG/1.1/DTD/svg11.dtd">
<!-- Creator: CorelDRAW 2020 (64-Bit) -->
<svg xmlns="http://www.w3.org/2000/svg" xml:space="preserve" width="5.0798mm" height="5.0798mm" version="1.1" style="shape-rendering:geometricPrecision; text-rendering:geometricPrecision; image-rendering:optimizeQuality; fill-rule:evenodd; clip-rule:evenodd"
viewBox="0 0 507.98 507.98"
 xmlns:xlink="http://www.w3.org/1999/xlink"
 xmlns:xodm="http://www.corel.com/coreldraw/odm/2003">
 <defs>
  <style type="text/css">
   <![CDATA[
    .fil0 {fill:#002FFF;fill-rule:nonzero}
   ]]>
  </style>
 </defs>
 <g id="Capa_x0020_1">
  <metadata id="CorelCorpID_0Corel-Layer"/>
  <g id="robotic-arm.svg">
   <path class="fil0" d="M182.03 232.82c-11.69,0 -21.17,9.48 -21.17,21.17 0,11.69 9.48,21.17 21.17,21.17 11.68,0 21.16,-9.48 21.16,-21.17 -0.01,-11.69 -9.48,-21.15 -21.16,-21.17zm0 33.87c-7.02,0 -12.7,-5.69 -12.7,-12.7 0,-7.01 5.68,-12.7 12.7,-12.7 7.01,0 12.7,5.69 12.7,12.7 0,7.01 -5.69,12.7 -12.7,12.7zm0 0z"/>
   <path class="fil0" d="M266.69 186.25c11.69,0 21.17,-9.47 21.17,-21.16 0,-11.69 -9.48,-21.17 -21.17,-21.17 -11.69,0 -21.17,9.48 -21.17,21.17 0.02,11.68 9.48,21.15 21.17,21.16zm0 -33.86c7.01,0 12.7,5.68 12.7,12.7 0,7.01 -5.69,12.7 -12.7,12.7 -7.01,0 -12.7,-5.69 -12.7,-12.7 0,-7.02 5.69,-12.7 12.7,-12.7zm0 0z"/>
   <path class="fil0" d="M368.29 255.78l0 -14.49c-0.04,-10.64 -7.97,-19.59 -18.53,-20.9l-45.2 -51.2c0.15,-1.36 0.22,-2.73 0.23,-4.1 0,-21.05 -17.06,-38.1 -38.1,-38.1 -21.04,0 -38.1,17.05 -38.1,38.1 0,0.67 0.07,1.33 0.1,1.99l-48.92 48.92c-15.35,0.88 -28.65,10.91 -33.72,25.42 -5.07,14.52 -0.89,30.65 10.58,40.89l0 64.82 -25.4 0c-2.34,0 -4.24,1.89 -4.24,4.23l0 25.4c0,2.34 1.9,4.23 4.24,4.23l160.86 0c2.34,0 4.23,-1.89 4.23,-4.23l0 -25.4c0,-2.34 -1.89,-4.23 -4.23,-4.23l-84.67 0 0 -64.82c9.72,-8.56 14.33,-21.53 12.19,-34.29l44.92 -44.94c0.72,0.04 1.43,0.11 2.16,0.11 2.15,-0.01 4.3,-0.21 6.42,-0.59l52.84 41.65 0 11.54c-7.7,3.37 -12.68,10.96 -12.7,19.37l0 42.33c0,1.47 0.75,2.84 2,3.62 1.25,0.78 2.81,0.85 4.13,0.19l16.93 -8.46c1.44,-0.72 2.35,-2.2 2.34,-3.81l0 -29.64 16.94 0 0 29.64c-0.01,1.61 0.9,3.09 2.34,3.8l16.93 8.47c1.32,0.66 2.88,0.59 4.13,-0.19 1.25,-0.78 2,-2.15 2,-3.62l0 -42.33c-0.02,-8.41 -5,-16.01 -12.7,-19.38l0 0zm-101.6 -120.33c16.37,0 29.63,13.27 29.63,29.64 0,16.36 -13.26,29.63 -29.63,29.63 -16.37,0 -29.63,-13.27 -29.63,-29.63 0.02,-16.36 13.27,-29.62 29.63,-29.64zm21.17 237.08l-152.4 0 0 -16.94 152.4 0 0 16.94zm-88.9 -25.4l-33.87 0 0 -59.06c10.66,5.36 23.22,5.36 33.87,0l0 59.06zm-16.93 -63.51c-16.37,0 -29.64,-13.26 -29.64,-29.63 0,-16.37 13.27,-29.63 29.64,-29.63 16.36,0 29.63,13.26 29.63,29.63 -0.02,16.36 -13.28,29.62 -29.63,29.63zm34.88 -44.87c-4.82,-10.95 -14.48,-19.01 -26.11,-21.78l39.79 -39.8c3.8,11.29 12.63,20.15 23.9,23.99l-37.58 37.59zm85.16 -59.59l37.46 42.43c-5.8,2.26 -10.32,6.96 -12.34,12.84l-44.3 -34.91c8.73,-4.12 15.58,-11.4 19.18,-20.36l0 0zm32.35 62.13c0,-7.01 5.69,-12.7 12.7,-12.7 7.01,0 12.7,5.69 12.7,12.7l0 12.7 -25.4 0 0 -12.7zm38.1 69.35l-8.47 -4.23 0 -31.25c0,-2.34 -1.89,-4.24 -4.23,-4.24l-25.4 0c-2.34,0 -4.23,1.9 -4.23,4.24l0 31.25 -8.47 4.23 0 -35.48c0,-7.02 5.69,-12.7 12.7,-12.7l25.4 0c7.01,0 12.7,5.68 12.7,12.7l0 35.48zm0 0z"/>
   <path class="fil0" d="M177.79 304.79c-2.34,0 -4.23,1.9 -4.23,4.24l0 25.4c0,2.33 1.9,4.23 4.23,4.23 2.34,0 4.24,-1.9 4.24,-4.23l0 -25.4c0,-2.34 -1.9,-4.24 -4.24,-4.24zm0 0z"/>
   <path class="fil0" d="M225.6 195.96l-16.93 16.94c-1.1,1.06 -1.55,2.63 -1.16,4.11 0.39,1.48 1.54,2.64 3.02,3.03 1.48,0.38 3.06,-0.06 4.12,-1.16l16.93 -16.93c1.61,-1.66 1.59,-4.3 -0.05,-5.94 -1.63,-1.63 -4.27,-1.65 -5.93,-0.05l0 0zm0 0z"/>
  </g>
 </g>
</svg>
