<?xml version="1.0" encoding="UTF-8"?>
<!DOCTYPE svg PUBLIC "-//W3C//DTD SVG 1.1//EN" "http://www.w3.org/Graphics/SVG/1.1/DTD/svg11.dtd">
<!-- Creator: CorelDRAW 2020 (64-Bit) -->
<svg xmlns="http://www.w3.org/2000/svg" xml:space="preserve" width="2.5398mm" height="2.5398mm" version="1.1" style="shape-rendering:geometricPrecision; text-rendering:geometricPrecision; image-rendering:optimizeQuality; fill-rule:evenodd; clip-rule:evenodd"
viewBox="0 0 253.98 253.98"
 xmlns:xlink="http://www.w3.org/1999/xlink"
 xmlns:xodm="http://www.corel.com/coreldraw/odm/2003">
 <defs>
  <style type="text/css">
   <![CDATA[
    .fil0 {fill:#002FFF;fill-rule:nonzero}
   ]]>
  </style>
 </defs>
 <g id="Capa_x0020_1">
  <metadata id="CorelCorpID_0Corel-Layer"/>
  <path id="letter.svg" class="fil0" d="M56.66 72.79l140.66 0c6.33,0.02 11.76,4.51 12.97,10.73l-83.3 46.41 -83.3 -46.41c1.21,-6.22 6.64,-10.71 12.97,-10.73zm140.66 108.4l-140.66 0c-7.27,-0.03 -13.16,-5.92 -13.19,-13.19l0 -74.55 81.37 45.36c0.66,0.37 1.4,0.56 2.15,0.58 0.76,0 1.5,-0.19 2.15,-0.58l81.37 -45.36 0 74.55c-0.01,7.28 -5.91,13.18 -13.19,13.19zm0 0z"/>
 </g>
</svg>
