<?xml version="1.0" encoding="UTF-8"?>
<!DOCTYPE svg PUBLIC "-//W3C//DTD SVG 1.1//EN" "http://www.w3.org/Graphics/SVG/1.1/DTD/svg11.dtd">
<!-- Creator: CorelDRAW 2020 (64-Bit) -->
<svg xmlns="http://www.w3.org/2000/svg" xml:space="preserve" width="1.6932mm" height="1.6932mm" version="1.1" style="shape-rendering:geometricPrecision; text-rendering:geometricPrecision; image-rendering:optimizeQuality; fill-rule:evenodd; clip-rule:evenodd"
viewBox="0 0 169.32 169.32"
 xmlns:xlink="http://www.w3.org/1999/xlink"
 xmlns:xodm="http://www.corel.com/coreldraw/odm/2003">
 <defs>
  <style type="text/css">
   <![CDATA[
    .fil0 {fill:#002FFF;fill-rule:nonzero}
   ]]>
  </style>
 </defs>
 <g id="Capa_x0020_1">
  <metadata id="CorelCorpID_0Corel-Layer"/>
  <g id="writing.svg">
   <path class="fil0" d="M148.42 41.8l-20.9 -20.9 -38.91 39.24 20.9 20.89 38.91 -39.23zm0 0z"/>
   <path class="fil0" d="M69.89 93.3c-1.69,4.06 2.39,8.14 6.45,6.44l25.01 -12.94 -18.53 -18.53 -12.93 25.03zm0 0z"/>
   <path class="fil0" d="M167.27 22.94c1.93,-1.92 1.93,-5.04 0,-6.96l-13.93 -13.93c-1.92,-1.93 -5.04,-1.93 -6.96,0l-11.89 11.89 20.89 20.89 11.89 -11.89zm0 0z"/>
   <path class="fil0" d="M15.38 138.84l4.93 0 0 24.95c0,1.99 1.19,3.79 3.04,4.55 1.81,0.76 3.94,0.35 5.36,-1.07l28.44 -28.43 57.39 0c8.15,0 14.77,-6.63 14.77,-14.78l0 -48.9 -15.53 15.54c-1.36,1.35 -2.94,2.42 -4.72,3.16l-28.19 14.63c-2.57,1.1 -4.49,1.49 -6.45,1.49 -1.47,0 -2.88,-0.28 -4.25,-0.69l-35.09 0c-2.72,0 -4.92,-2.21 -4.92,-4.93 0,-2.72 2.2,-4.92 4.92,-4.92l24.94 0c-0.97,-3.23 -0.55,-6.72 0.79,-9.93l15.19 -29.51c0.44,-1.1 1.5,-2.68 2.86,-4.03l15.63 -15.64 -79.11 0c-8.15,0 -14.78,6.63 -14.78,14.78l0 68.95c0,8.15 6.63,14.78 14.78,14.78zm0 0z"/>
  </g>
 </g>
</svg>
